<svg xmlns="http://www.w3.org/2000/svg" viewBox="0 0 160 200" fill="none">
  <!-- Water drop outline -->
  <path d="M80 6 C80 6 18 88 18 138 C18 170 46 196 80 196 C114 196 142 170 142 138 C142 88 80 6 80 6 Z" fill="rgba(255,255,255,0.05)" stroke="white" stroke-width="5"/>

  <!-- Mane silhouette -->
  <path d="
    M108,56
    C118,50 126,55 129,64
    C134,58 140,62 138,72
    C143,70 146,77 141,83
    C146,84 146,92 139,93
    C143,98 140,106 133,104
    C132,111 125,114 118,109
    C113,118 103,119 98,112
    C92,118 83,116 80,109
    C74,114 66,111 66,103
    C60,103 57,96 62,89
    C57,86 57,78 64,76
    C61,69 64,61 72,61
    C74,53 82,50 90,55
    C94,48 102,47 108,56 Z
  " fill="white"/>

  <!-- Face/snout -->
  <path d="
    M72,72
    C64,70 55,75 50,83
    C45,91 45,103 50,111
    C54,117 61,121 70,123
    C74,124 78,124 81,122
    C86,120 89,115 89,108
    L89,86
    C89,77 81,73 72,72 Z
  " fill="white"/>

  <!-- Snout tip -->
  <path d="M50,96 C44,96 40,101 42,108 C44,113 51,116 58,114 C62,112 64,109 62,105 C60,101 56,99 50,96 Z" fill="white"/>

  <!-- Purple wave -->
  <path d="
    M28,155
    C40,145 56,150 80,148
    C104,146 120,141 132,152
    L132,170
    C125,176 112,179 100,177
    C92,183 68,185 56,179
    C44,183 34,180 28,172 Z
  " fill="#7b35c4"/>
</svg>
