<svg xmlns="http://www.w3.org/2000/svg" viewBox="0 0 240 320" fill="none">
  <!-- Water drop outline -->
  <path d="M120 8 C120 8 42 108 42 168 C42 208 77 238 120 238 C163 238 198 208 198 168 C198 108 120 8 120 8 Z" fill="white" stroke="#1a1a1a" stroke-width="6"/>

  <!-- Lion + lamb silhouette (black fill) -->
  <!-- Mane - large rounded irregular shape -->
  <path d="
    M155,80
    C168,72 178,78 182,90
    C188,82 196,86 194,98
    C200,96 204,104 198,112
    C204,114 204,124 196,126
    C200,132 196,142 188,140
    C186,148 178,152 170,146
    C164,156 152,158 144,150
    C136,158 124,156 120,146
    C112,152 102,148 102,138
    C94,138 90,128 96,120
    C90,116 90,106 98,104
    C94,96 98,86 108,86
    C110,76 120,72 130,78
    C134,70 146,68 155,80 Z
  " fill="#1a1a1a"/>

  <!-- Head/face - protrudes left -->
  <path d="
    M110,102
    C100,100 88,106 82,116
    C76,126 76,140 82,150
    C86,158 94,164 104,166
    C108,168 112,168 116,166
    C122,164 126,158 126,150
    L126,120
    C126,110 118,104 110,102 Z
  " fill="#1a1a1a"/>

  <!-- Snout -->
  <path d="
    M82,130 C74,130 68,136 70,144 C72,150 80,154 88,152 C92,150 94,146 92,142 C90,138 86,136 82,130 Z
  " fill="#1a1a1a"/>

  <!-- Small lamb silhouette inside mane -->
  <path d="
    M140,118
    C140,114 136,110 132,110
    C128,110 124,114 124,118
    L124,130
    C124,134 128,136 132,136
    C136,136 140,134 140,130 Z
    M128,108 C128,106 130,104 132,104 C134,104 136,106 136,108
    M142,116 C144,114 148,114 148,118 L148,126 C148,128 146,130 144,130
    M122,116 C120,114 116,116 116,120 L116,128 C116,130 118,132 120,132
  " fill="white" stroke="white" stroke-width="1"/>

  <!-- Purple wave at bottom of drop -->
  <path d="
    M64,195
    C80,182 100,188 120,186
    C140,184 160,178 176,192
    L176,215
    C168,222 152,226 138,224
    C128,232 112,234 100,228
    C88,234 74,230 64,220 Z
  " fill="#7b35c4"/>

  <!-- RECLAIMED text -->
  <text x="120" y="266" text-anchor="middle" font-family="'Arial Black', 'Helvetica Neue', sans-serif" font-weight="900" font-size="28" letter-spacing="3" fill="#1a1a1a">RECLAIMED</text>

  <!-- Purple dashes and DETAILERS -->
  <rect x="50" y="278" width="22" height="2.5" rx="1" fill="#7b35c4"/>
  <text x="120" y="285" text-anchor="middle" font-family="'Arial', 'Helvetica Neue', sans-serif" font-weight="400" font-size="12" letter-spacing="5" fill="#1a1a1a">DETAILERS</text>
  <rect x="168" y="278" width="22" height="2.5" rx="1" fill="#7b35c4"/>
</svg>
